<svg xmlns="http://www.w3.org/2000/svg" xmlns:xlink="http://www.w3.org/1999/xlink" xmlns:sketch="http://www.bohemiancoding.com/sketch/ns" width="93px" height="47px" viewBox="0 0 93 47" version="1.1">
    <!-- Generator: Sketch 3.2.2 (9983) - http://www.bohemiancoding.com/sketch -->
    <title>Develop</title>
    <desc>Created with Sketch.</desc>
    <defs/>
    <g id="Page-1" stroke="none" stroke-width="1" fill="none" fill-rule="evenodd" sketch:type="MSPage">
        <path d="M2.09018144,24.7466844 C0.903862246,25.3700265 0,26.7413793 0,28.2997347 C0,29.8580902 0.903862246,31.229443 2.09018144,31.8527851 L25.0821773,43.5092838 C26.4944621,44.2572944 27.3983243,44.3819629 28.1892038,44.3819629 C29.9969283,44.3819629 31.2962303,43.0106101 31.2962303,40.6419098 C31.2962303,39.2082228 31.0137733,37.83687 28.6411349,36.7148541 L10.4509072,28.2997347 L28.6411349,19.8846154 C31.0137733,18.7625995 31.2962303,17.3912467 31.2962303,15.9575597 C31.2962303,13.5888594 29.9969283,12.2175066 28.1892038,12.2175066 C27.3983243,12.2175066 26.4944621,12.3421751 25.0821773,13.0901857 L2.09018144,24.7466844 Z M37.8584467,36.5901857 C36.898093,39.6445623 36.2766877,41.5769231 36.2766877,42.698939 C36.2766877,45.6909814 38.5928348,47 40.4005592,47 C42.8861804,47 43.5075857,46.3143236 44.5809221,42.8859416 L54.975338,10.4098143 C55.9356916,7.35543767 56.5570969,5.42307692 56.5570969,4.30106101 C56.5570969,1.30901857 54.2409499,0 52.4332254,0 C49.9476042,0 49.3261989,0.685676393 48.2528625,4.11405836 L37.8584467,36.5901857 Z M82.3828774,28.2997347 L64.1926497,36.7148541 C61.8200113,37.83687 61.5375544,39.2082228 61.5375544,40.6419098 C61.5375544,43.0106101 62.8368563,44.3819629 64.6445808,44.3819629 C65.4354603,44.3819629 66.3393225,44.2572944 67.7516073,43.5092838 L90.7436032,31.8527851 C91.9299224,31.229443 92.8337846,29.8580902 92.8337846,28.2997347 C92.8337846,26.7413793 91.9299224,25.3700265 90.7436032,24.7466844 L67.7516073,13.0901857 C66.3393225,12.3421751 65.4354603,12.2175066 64.6445808,12.2175066 C62.8368563,12.2175066 61.5375544,13.5888594 61.5375544,15.9575597 C61.5375544,17.3912467 61.8200113,18.7625995 64.1926497,19.8846154 L82.3828774,28.2997347 Z" id="Develop" fill="#000000" sketch:type="MSShapeGroup"/>
    </g>
</svg>